<svg version="1.1" xmlns="http://www.w3.org/2000/svg" xmlns:xlink="http://www.w3.org/1999/xlink" width="341.61631" height="353.8541" viewBox="0,0,341.61631,353.8541"><defs><linearGradient x1="388.07041" y1="25.81066" x2="91.92959" y2="321.95148" gradientUnits="userSpaceOnUse" id="color-1"><stop offset="0" stop-color="#0078ff"/><stop offset="1" stop-color="#000267"/></linearGradient><linearGradient x1="91.92959" y1="25.81066" x2="388.07041" y2="321.95148" gradientUnits="userSpaceOnUse" id="color-2"><stop offset="0" stop-color="#00aaff"/><stop offset="1" stop-color="#0076ff"/></linearGradient><linearGradient x1="91.92959" y1="25.81066" x2="241.40926" y2="175.29033" gradientUnits="userSpaceOnUse" id="color-3"><stop offset="0" stop-color="#d2ffff"/><stop offset="1" stop-color="#d2ffff" stop-opacity="0"/></linearGradient></defs><g transform="translate(-69.19185,-3.07295)"><g data-paper-data="{&quot;isPaintingLayer&quot;:true}" fill-rule="nonzero" stroke="none" stroke-width="0" stroke-linecap="butt" stroke-linejoin="miter" stroke-miterlimit="10" stroke-dasharray="" stroke-dashoffset="0" style="mix-blend-mode: normal"><path d="M154.90757,101.02652c81.77703,-81.77703 186.1676,-109.97323 233.16284,-62.97798c46.99524,46.99524 18.79902,151.38578 -62.97801,233.16281c-81.77703,81.77703 -186.16757,109.97323 -233.16281,62.97798c-46.99524,-46.99524 -18.79905,-151.38581 62.97798,-233.16284z" fill="#000540"/><path d="M154.9076,271.21138c-81.77703,-81.77703 -109.97323,-186.1676 -62.97798,-233.16284c46.99524,-46.99524 151.38578,-18.79905 233.16281,62.97798c81.77703,81.77703 109.97325,186.16757 62.97801,233.16281c-46.99524,46.99524 -151.38581,18.79905 -233.16284,-62.97798z" fill="#000540"/><path d="M154.90757,88.78867c81.77703,-81.77703 186.1676,-109.97325 233.16284,-62.97801c46.99524,46.99527 18.79902,151.38581 -62.97801,233.16284c-81.77703,81.77703 -186.16757,109.97323 -233.16281,62.97798c-46.99524,-46.99524 -18.79905,-151.38581 62.97798,-233.16284z" fill="url(#color-1)"/><path d="M91.92962,25.81066c46.99524,-46.99524 151.38578,-18.79902 233.16281,62.97801c81.77703,81.77703 109.97323,186.16757 62.97798,233.16281c-46.99524,46.99524 -151.38578,18.79905 -233.16281,-62.97798c-81.77703,-81.77703 -109.97323,-186.1676 -62.97798,-233.16284z" fill="url(#color-2)"/><path d="M154.90755,258.9735c-81.77703,-81.77703 -109.97323,-186.1676 -62.97798,-233.16284c46.99524,-46.99522 151.38581,-18.79902 233.16284,62.97801c1.65336,1.65333 -168.09295,172.27671 -170.18483,170.18483z" fill="url(#color-3)"/><path d="M153.45992,248.76781l86.54008,-157.93202l86.54008,157.93202l-86.54008,-47.78472z" fill="#0073ff"/><path d="M153.45992,240.60922l86.54008,-157.93202l86.54008,157.93202l-86.54008,-47.78472z" fill="#ffffff"/></g></g></svg>